<svg xmlns="http://www.w3.org/2000/svg" width="20" height="20" viewBox="0 0 20 20">
  <path fill="#536076" d="M8.19047619,2.4 C11.8355555,2.4 14.7904762,5.35492065 14.7904762,9 C14.7904762,10.6063613 14.2165999,12.0786865 13.2626819,13.2231412 L18.0147403,17.9757359 C18.2490548,18.2100505 18.2490548,18.5899495 18.0147403,18.8242641 C17.7804257,19.0585786 17.4005267,19.0585786 17.1662121,18.8242641 L17.1662121,18.8242641 L12.4136174,14.0722057 C11.2691627,15.0261237 9.79683744,15.6 8.19047619,15.6 C4.54539684,15.6 1.59047619,12.6450793 1.59047619,9 C1.59047619,5.35492065 4.54539684,2.4 8.19047619,2.4 Z M8.19047619,3.6 C5.20813854,3.6 2.79047619,6.01766235 2.79047619,9 C2.79047619,11.9823376 5.20813854,14.4 8.19047619,14.4 C11.1728138,14.4 13.5904762,11.9823376 13.5904762,9 C13.5904762,6.01766235 11.1728138,3.6 8.19047619,3.6 Z"/>
</svg>
